# xmcd
#
# Track frame offsets:
#	183
#	22043
#	48698
#	57903
#	71740
#	84358
#	106903
#	127938
#	140975
#	154023
#	179710
#	191305
#	204085
#	221975
#	244278
#	276673
#
# Disc length: 3762
#
# Revision: 2
# Processed by: cddbd v1.5.1PL0 Copyright (c) Steve Scherf et al.
# Submitted via: CDex 1.50
# Normalized: r0:DSETVAR1,TSWAP
#
DISCID=fa0eb010
DTITLE=Various Artist - Blue Berlin
DYEAR=1996
DGENRE=Jazz
TTITLE0=Jackie Mclean - Let's Face The Music And Dance
TTITLE1=Horance Parlan - This Song Is Ended
TTITLE2=Peggy Lee - Maybe It's Because I Love You Too Much
TTITLE3=Lou Donaldson - Cheek To Cheek
TTITLE4=Elmo Hope - It's A Lovely Day Today
TTITLE5=Lee Morgan - Who Do You Love, I Hope
TTITLE6=Miles Davis - How Deep Is The Ocean
TTITLE7=Art Tatum - Blue Skies
TTITLE8=Jutta Hipp - Blue Skies
TTITLE9=Hank Mobley - Remember
TTITLE10=Stan Kenton - Say It Isn't So
TTITLE11=Bud Shank and Bob Cooper - What'll I Do
TTITLE12=Eddie Davis and Joe Newman - Marie
TTITLE13=Bud Powell - The Best Thing For You
TTITLE14=Art Blakey and Paul Chambers - I7ve Got My Love To Keep Me Warm
TTITLE15=Sheila Jordan - Let's Face The Music And Dance
EXTD=YEAR: 1996
EXTT0=
EXTT1=
EXTT2=
EXTT3=
EXTT4=
EXTT5=
EXTT6=
EXTT7=
EXTT8=
EXTT9=
EXTT10=
EXTT11=
EXTT12=
EXTT13=
EXTT14=
EXTT15=
PLAYORDER=
